<?xml version="1.0" encoding="UTF-8"?>
<svg id="Laag_1" data-name="Laag 1" xmlns="http://www.w3.org/2000/svg" viewBox="0 0 40 31.05">
  <defs>
    <style>
      .cls-1 {
        fill: #fff;
      }
    </style>
  </defs>
  <path class="cls-1" d="m0,31.05v-4.75c0-1.13.3-2.18.9-3.13s1.43-1.66,2.5-2.13c2-.9,4.05-1.63,6.16-2.18,2.11-.55,4.25-.83,6.44-.83,1.1,0,2.2.08,3.3.23,1.1.16,2.2.34,3.3.57v2.65c-1.5.57-2.74,1.48-3.73,2.75s-1.48,2.7-1.48,4.3v2.5H0Zm20.4,0v-2.55c0-.76.18-1.47.55-2.12.37-.65.88-1.16,1.55-1.53,1.2-.62,2.44-1.08,3.73-1.39s2.61-.46,3.98-.46,2.7.15,4,.45,2.53.77,3.7,1.4c.67.33,1.18.83,1.55,1.49.37.66.55,1.38.55,2.16v2.55h-19.6Zm9.8-11.05c-1.32,0-2.43-.45-3.34-1.36s-1.36-2.02-1.36-3.34.45-2.43,1.36-3.34,2.02-1.36,3.34-1.36,2.43.45,3.34,1.36,1.36,2.02,1.36,3.34-.45,2.43-1.36,3.34-2.02,1.36-3.34,1.36Zm-14.2-5c-2.1,0-3.88-.73-5.33-2.18s-2.18-3.23-2.18-5.33.73-3.88,2.18-5.33,3.23-2.18,5.33-2.18,3.88.73,5.33,2.18,2.18,3.23,2.18,5.33-.73,3.88-2.18,5.33-3.23,2.18-5.33,2.18Z"/>
</svg>