<?xml version="1.0" encoding="UTF-8"?>
<svg id="Laag_1" data-name="Laag 1" xmlns="http://www.w3.org/2000/svg" viewBox="0 0 1024 568.89">
  <defs>
    <style>
      .cls-1 {
        fill: #fff;
      }
    </style>
  </defs>
  <path class="cls-1" d="m896,312.89c-17.07,0-34.13,2.84-51.2,11.38,5.69-11.38,8.53-25.6,8.53-39.82,0-62.58-51.2-113.78-113.78-113.78-25.6,0-45.51,8.53-65.42,19.91C645.69,82.49,546.13,0,426.67,0,284.44,0,170.67,113.78,170.67,256c0,11.38,0,22.76,2.84,31.29-11.38-2.84-19.91-2.84-31.29-2.84C62.58,284.44,0,347.02,0,426.67s62.58,142.22,142.22,142.22h753.78c71.11,0,128-56.89,128-128s-56.89-128-128-128Z"/>
</svg>