<?xml version="1.0" encoding="UTF-8"?>
<svg id="Layer_1" data-name="Layer 1" xmlns="http://www.w3.org/2000/svg" viewBox="0 0 799.97 800">
  <defs>
    <style>
      .cls-1 {
        fill: #fff;
      }
    </style>
  </defs>
  <path class="cls-1" d="m0,399.99c0,158.31,92.01,295.15,225.45,359.98L34.64,237.21C12.45,286.95,0,342,0,399.99Zm670.01-20.18c0-49.45-17.76-83.67-32.98-110.31-20.27-32.97-39.28-60.85-39.28-93.81,0-36.77,27.86-70.99,67.16-70.99,1.78,0,3.47.22,5.18.33C598.94,39.82,504.12,0,399.99,0,260.25,0,137.31,71.71,65.78,180.27c9.4.31,18.25.5,25.75.5,41.83,0,106.61-5.09,106.61-5.09,21.55-1.27,24.09,30.42,2.55,32.97,0,0-21.68,2.54-45.77,3.79l145.65,433.27,87.54-262.53-62.31-170.75c-21.55-1.26-41.95-3.79-41.95-3.79-21.55-1.28-19.03-34.23,2.53-32.97,0,0,66.04,5.09,105.35,5.09,41.83,0,106.61-5.09,106.61-5.09,21.55-1.27,24.1,30.42,2.55,32.97,0,0-21.7,2.54-45.77,3.79l144.54,429.97,39.9-133.29c20.28-51.98,30.44-95.08,30.44-129.31Zm-262.99,55.17l-120.02,348.73c35.84,10.54,73.74,16.29,112.99,16.29,46.59,0,91.26-8.04,132.83-22.67-1.05-1.71-2.05-3.53-2.86-5.51l-122.95-336.83Zm343.97-226.87c1.73,12.73,2.7,26.39,2.7,41.13,0,40.57-7.61,86.2-30.43,143.26l-122.17,353.22c118.93-69.33,198.89-198.16,198.89-345.72,0-69.55-17.78-134.93-48.99-191.89Z"/>
</svg>